<?xml version="1.0" encoding="UTF-8" standalone="no"?>
<!-- Created with Inkscape (http://www.inkscape.org/) -->

<svg
   width="187.7049mm"
   height="162.39259mm"
   viewBox="0 0 187.7049 162.39259"
   version="1.1"
   id="svg5"
   inkscape:version="1.2.1 (9c6d41e410, 2022-07-14)"
   sodipodi:docname="výkres.svg"
   xmlns:inkscape="http://www.inkscape.org/namespaces/inkscape"
   xmlns:sodipodi="http://sodipodi.sourceforge.net/DTD/sodipodi-0.dtd"
   xmlns="http://www.w3.org/2000/svg"
   xmlns:svg="http://www.w3.org/2000/svg">
  <sodipodi:namedview
     id="namedview7"
     pagecolor="#ffffff"
     bordercolor="#000000"
     borderopacity="0.25"
     inkscape:showpageshadow="2"
     inkscape:pageopacity="0.0"
     inkscape:pagecheckerboard="0"
     inkscape:deskcolor="#d1d1d1"
     inkscape:document-units="mm"
     showgrid="false"
     inkscape:zoom="0.72515432"
     inkscape:cx="269.59779"
     inkscape:cy="539.19557"
     inkscape:window-width="1920"
     inkscape:window-height="1001"
     inkscape:window-x="-9"
     inkscape:window-y="-9"
     inkscape:window-maximized="1"
     inkscape:current-layer="layer2" />
  <defs
     id="defs2" />
  <g
     inkscape:groupmode="layer"
     id="layer3"
     inkscape:label="Vrstva 3"
     transform="translate(-17.290317,-71.15579)">
    <path
       style="fill:#800000;stroke-width:0.576792;stroke-linecap:round"
       id="path830"
       d="m 20.624206,190.88706 c 2.075591,-1.63662 4.12515,-3.30605 6.193309,-4.95237 2.178662,-1.65473 3.973791,-3.69774 5.644513,-5.84573 1.230101,-1.70107 1.949127,-3.67486 2.778051,-5.58304 0.552563,-1.49271 1.104193,-2.98621 1.860539,-4.38932 0.552842,-1.14752 1.316598,-2.13942 2.216669,-3.03191 0.815152,-0.77422 1.694513,-1.47564 2.567291,-2.18283 0.671621,-0.51489 1.25421,-1.13249 1.825607,-1.75351 0.444995,-0.45127 0.868878,-0.8985 1.445363,-1.17795 0.770988,-0.28159 1.572268,0.0272 2.241611,0.42194 -5.487223,-3.07979 -3.019555,-1.79537 -1.897859,-0.98473 0.523719,0.37849 1.023842,0.795 1.528122,1.19854 1.174795,0.86313 2.267556,1.81453 3.291131,2.85036 1.019347,1.01117 1.926299,2.11003 2.747248,3.28538 0.682136,1.13515 1.558645,2.12944 2.36615,3.17365 0,0 3.604459,1.54334 3.604459,1.54334 v 0 c -0.533255,-0.66573 -0.268388,-0.3196 -0.792509,-1.03998 -0.550617,-0.69068 -1.183741,-1.32343 -1.595081,-2.11745 -0.819941,-1.18718 -1.684255,-2.32699 -2.715683,-3.34257 -1.014577,-1.0526 -2.082842,-2.04189 -3.275933,-2.89325 -1.972567,-1.62147 -3.974584,-3.01532 -6.330506,-4.13061 -0.807275,-0.34315 -1.660014,-0.54966 -2.484358,-0.13132 -0.584017,0.33964 -1.052147,0.80113 -1.510781,1.29309 -0.560782,0.60721 -1.128231,1.21175 -1.787234,1.7149 -0.865532,0.73259 -1.760651,1.43153 -2.57212,2.22552 -0.907117,0.93329 -1.711812,1.94744 -2.266485,3.13455 -0.749707,1.4204 -1.310507,2.92256 -1.849358,4.4337 -0.79811,1.88621 -1.51084,3.82716 -2.704031,5.51239 -1.642068,2.12874 -3.398898,4.15521 -5.545687,5.79924 -2.075746,1.65713 -4.150146,3.32342 -6.316328,4.86131 0,0 3.33389,2.10866 3.33389,2.10866 z" />
    <path
       style="fill:#800000;stroke-width:0.576792;stroke-linecap:round"
       id="path832"
       d="m 19.362192,191.12891 c 2.561206,1.86474 5.140258,3.70414 7.666162,5.61684 2.244079,1.71693 4.532225,3.37618 6.874901,4.95587 1.64536,1.12273 3.230285,2.32284 4.80721,3.53865 1.047922,0.82427 2.09414,1.65506 3.101062,2.52979 1.052589,0.93806 1.866262,2.09919 2.717699,3.21292 1.159568,1.3963 2.480239,2.64748 3.859694,3.82298 1.366057,1.12023 2.739967,2.23095 4.106656,3.35068 1.347756,1.20837 2.803602,2.28216 4.218644,3.408 1.234025,0.99687 2.372968,2.10209 3.564554,3.14785 2.224415,1.85154 4.803055,3.21641 7.294126,4.65871 -6.233049,-3.57791 -0.52133,-0.29253 1.191651,0.65515 0.188384,0.10422 0.393912,0.17434 0.586071,0.27142 0.581835,0.29394 1.142791,0.61039 1.736286,0.88249 1.159367,0.52492 2.33051,1.03082 3.459144,1.61839 1.074033,0.53058 2.264888,0.66071 3.443356,0.73772 1.399968,0.0781 2.791931,-0.23974 4.15717,-0.51813 0.902888,-0.26659 1.855893,-0.42256 2.713382,-0.82875 0.500525,-0.2371 0.701952,-0.4179 1.150048,-0.74552 1.329865,-1.10113 2.387343,-2.49487 3.449844,-3.84657 0.878102,-1.13941 1.748414,-2.28375 2.593255,-3.44831 0.70806,-1.20408 1.570096,-2.29324 2.409494,-3.40528 1.001022,-1.21755 2.175902,-2.23655 3.428495,-3.18117 1.322094,-1.05968 2.790884,-1.90763 4.220434,-2.81013 1.38278,-0.85771 2.8018,-1.65497 4.24131,-2.4136 0.22961,-0.10175 0.45922,-0.20349 0.68883,-0.30523 0,0 -3.25304,-2.15759 -3.25304,-2.15759 v 0 c -0.23324,0.10877 -0.46648,0.21753 -0.69972,0.32629 -1.44282,0.76865 -2.86449,1.5794 -4.252878,2.44227 -1.433889,0.91315 -2.909189,1.76919 -4.238033,2.83584 -1.282509,0.9628 -2.465437,2.02629 -3.487126,3.26981 -0.85667,1.10386 -1.716908,2.19975 -2.427827,3.40677 -0.837642,1.16221 -1.707557,2.29971 -2.56223,3.44891 -1.03836,1.32565 -2.079861,2.69188 -3.412382,3.73693 -1.157481,0.79063 -2.399204,1.15509 -3.764669,1.44139 -1.35442,0.25261 -2.724033,0.5611 -4.109836,0.42117 -1.160947,-0.10814 -2.312194,-0.29616 -3.352202,-0.85849 -1.147202,-0.55299 -2.302341,-1.0887 -3.464171,-1.61034 -0.583237,-0.28284 -1.152647,-0.58966 -1.731846,-0.88042 -0.19132,-0.096 -0.759799,-0.39326 -0.577332,-0.28131 0.905016,0.55527 8.210397,4.7813 -1.167799,-0.65638 5.925214,3.45892 0.496075,0.30576 -0.646046,-0.73711 -1.202037,-1.04219 -2.344997,-2.14866 -3.568195,-3.1665 -1.408292,-1.14065 -2.893729,-2.18242 -4.231389,-3.40894 -1.363921,-1.11755 -2.724134,-2.2391 -4.099578,-3.34222 -1.381691,-1.14938 -2.705785,-2.36791 -3.871566,-3.73983 -0.877657,-1.10239 -1.653722,-2.29948 -2.680687,-3.27412 -0.993714,-0.9071 -2.068081,-1.72131 -3.112246,-2.56683 -0.981302,-0.7371 -1.924198,-1.52953 -2.930527,-2.23326 -0.311021,-0.2175 -0.64048,-0.40784 -0.951167,-0.62582 -0.330052,-0.23156 -0.646832,-0.48149 -0.970248,-0.72223 -2.364785,-1.57495 -4.669295,-3.2365 -6.93261,-4.95443 -2.48171,-1.89011 -5.026456,-3.69403 -7.528324,-5.55703 0,0 -3.655804,-1.4613 -3.655804,-1.4613 z" />
    <path
       style="fill:#800000;stroke-width:0.576792;stroke-linecap:round"
       id="path834"
       d="m 18.146183,187.80617 c 1.083335,1.39435 2.422111,2.55875 3.771318,3.68734 1.390378,1.14201 2.872785,2.15467 4.344395,3.18421 1.196721,0.784 2.354122,1.60895 3.463314,2.51197 1.338209,1.13798 2.552485,2.40776 3.827549,3.61357 1.088242,1.07873 2.197113,2.12482 3.389143,3.0888 1.089817,0.81581 2.127581,1.68799 3.111395,2.62766 1.132353,1.04865 2.063146,2.27226 3.024735,3.47084 1.224793,1.44866 2.335702,2.97772 3.600593,4.39421 1.293283,1.47882 2.713627,2.85366 4.251668,4.07607 1.478426,1.08338 3.024198,2.0696 4.519618,3.12839 1.582936,1.03653 3.169415,2.06651 4.750202,3.10677 1.516864,1.00545 3.088939,1.92145 4.644713,2.86413 1.731661,1.065 3.512317,2.04831 5.279559,3.0519 0.189564,0.10765 0.761754,0.42428 0.573196,0.31488 -0.942141,-0.54665 -3.780819,-2.16534 -2.834081,-1.62669 1.309309,0.74495 2.614538,1.49704 3.921807,2.24556 -0.92846,-0.52558 -1.849548,-1.06439 -2.785377,-1.57673 -0.186759,-0.10225 0.353407,0.23806 0.537038,0.34582 2.177238,1.27769 3.289469,2.15385 5.37019,2.78141 0,0 -3.083449,-2.39271 -3.083449,-2.39271 v 0 c -0.239803,-0.0847 -0.484071,-0.15765 -0.719402,-0.25407 -0.228209,-0.0935 -0.879309,-0.44451 -0.669468,-0.31495 0.903685,0.55796 1.830327,1.07804 2.754101,1.60207 0.186243,0.10564 -0.356851,-0.23707 -0.540856,-0.34657 -1.300713,-0.77403 -2.608633,-1.53589 -3.912949,-2.30384 9.586751,5.5765 -8.206663,-4.75191 1.067398,0.66594 0.44259,0.25856 -1.784673,-1.04053 -1.321496,-0.78632 -1.555528,-0.95323 -3.145912,-1.84891 -4.665615,-2.86003 -1.589053,-1.02089 -3.143604,-2.09497 -4.750993,-3.08813 -1.482492,-1.07599 -3.032628,-2.05524 -4.526738,-3.11534 -1.565904,-1.18622 -2.998663,-2.55569 -4.303326,-4.02287 -0.504592,-0.55575 -0.987118,-1.07004 -1.457685,-1.65493 -0.716301,-0.89034 -1.300533,-1.88623 -2.106133,-2.7041 -0.987923,-1.18041 -1.86866,-2.44709 -2.993398,-3.51044 -0.995117,-0.94106 -1.993397,-1.87207 -3.11567,-2.66654 -1.207653,-0.94461 -2.328878,-1.97484 -3.408302,-3.06221 -1.2838,-1.19575 -2.498838,-2.46011 -3.80415,-3.63291 -1.109464,-0.91006 -2.230583,-1.78864 -3.460533,-2.53517 -1.481621,-1.11228 0.236279,0.14228 -1.324146,-0.88721 -1.060831,-0.69989 -2.016948,-1.55352 -3.055074,-2.28498 -1.33712,-1.08547 -2.68792,-2.21286 -3.726323,-3.59558 0,0 -3.636768,-1.53922 -3.636768,-1.53922 z" />
    <path
       style="fill:#800000;stroke-width:0.576792;stroke-linecap:round"
       id="path836"
       d="m 25.624118,191.62366 c 1.5583,-0.0969 3.097072,0.0492 4.637508,0.26814 1.616461,0.29128 3.140617,0.91845 4.702495,1.40536 0.859298,0.43845 1.804376,0.60637 2.713238,0.88763 0.91008,0.2627 1.805713,0.56508 2.727847,0.78626 1.139504,0.24238 2.197621,0.68599 3.268289,1.13169 0.979278,0.29926 1.829361,0.84566 2.81731,1.12055 0.829849,0.36359 1.682205,0.66977 2.541185,0.95573 0.930555,0.29486 1.891578,0.46107 2.836071,0.69621 1.018932,0.22885 2.061853,0.32034 3.102512,0.37819 0.904598,-0.0255 1.786877,0.17351 2.681756,0.26974 0.829302,0.0701 1.648238,0.0705 2.460101,0.25776 0.591056,0.13702 1.141299,0.42197 1.708394,0.64085 0.412062,0.11563 0.77534,0.33251 1.181949,0.46951 0,0 -3.118339,-2.44225 -3.118339,-2.44225 v 0 c -0.389687,-0.16365 -0.773396,-0.34061 -1.174938,-0.47483 -0.567648,-0.23762 -1.140622,-0.48303 -1.751521,-0.58234 -0.815721,-0.14108 -1.646708,-0.11051 -2.466737,-0.22306 -0.895871,-0.11693 -1.788469,-0.25559 -2.694992,-0.25141 -1.0291,-0.0687 -2.05753,-0.17867 -3.06056,-0.42908 -0.94851,-0.20494 -1.889967,-0.43141 -2.813675,-0.73273 -0.851143,-0.31216 -1.704019,-0.61675 -2.54899,-0.94403 -0.949865,-0.3264 -1.818587,-0.84353 -2.781856,-1.13977 -1.077235,-0.44926 -2.169586,-0.82732 -3.308987,-1.09018 -0.919398,-0.24494 -1.820164,-0.55241 -2.737027,-0.8065 -0.910093,-0.2315 -1.793079,-0.52953 -2.669329,-0.86888 -1.560777,-0.49578 -3.096397,-1.10778 -4.726826,-1.34087 -1.572433,-0.20465 -3.143081,-0.30581 -4.729665,-0.2701 0,0 3.204787,2.32841 3.204787,2.32841 z" />
    <path
       style="fill:#800000;stroke-width:0.576792;stroke-linecap:round"
       id="path838"
       d="m 66.861046,207.03963 c 0.252124,1.57022 0.619834,3.11866 0.906857,4.68322 0.336934,1.6702 0.689274,3.33762 1.060738,5.00044 0.402326,1.60109 0.948,3.16071 1.409454,4.74504 0.388917,1.19475 0.81978,2.36961 1.177063,3.57472 0.236011,0.90279 0.555942,1.78001 0.931873,2.63318 0.320005,0.70026 0.661691,1.38913 0.974672,2.09284 0.05413,0.11741 0.108262,0.23481 0.162393,0.35222 0,0 3.59772,1.63472 3.59772,1.63472 v 0 c -0.05599,-0.11203 -0.111988,-0.22405 -0.167982,-0.33608 -0.296042,-0.71842 -0.655031,-1.40407 -0.972878,-2.1107 -0.426019,-0.81555 -0.722876,-1.70098 -0.968735,-2.58557 -0.384278,-1.20379 -0.762939,-2.4031 -1.214387,-3.58456 -0.449977,-1.57957 -1.000355,-3.12884 -1.407382,-4.72066 -0.394229,-1.66096 -0.741386,-3.33327 -1.105382,-5.00108 -0.271891,-1.54446 -0.615018,-3.07774 -0.82964,-4.62976 0,0 -3.554384,-1.74797 -3.554384,-1.74797 z" />
    <path
       style="fill:#2b0000;stroke-width:0.576792;stroke-linecap:round"
       id="path840"
       d="m 58.12814,173.25123 c -5.648859,-3.37184 -2.209988,-1.2758 -1.060082,-0.31757 0.405045,0.33753 0.547126,0.49199 0.916749,0.85605 0.13144,0.13772 0.261885,0.2764 0.394317,0.41317 0.159861,0.16509 0.305387,0.34589 0.482026,0.49289 1.191233,0.99134 4.614092,2.45614 3.111396,1.02012 -0.414792,-0.38924 -0.841539,-0.76221 -1.251463,-1.15675 0,0 -3.623783,-1.50472 -3.623783,-1.50472 v 0 c 0.388389,0.41744 0.807415,0.77888 1.228624,1.16213 1.342186,1.26485 0.400219,0.44075 4.210584,2.12252 0.03367,0.0149 0.0037,-0.078 -0.01574,-0.10929 -0.231119,-0.37114 -0.695809,-0.55097 -0.9124,-0.93741 -1.88277,-1.94214 -4.145701,-3.25832 -6.572538,-4.49175 0,0 3.092309,2.45061 3.092309,2.45061 z" />
  </g>
  <g
     inkscape:groupmode="layer"
     id="layer2"
     inkscape:label="Vrstva 2"
     transform="translate(-20.938965,-76.263898)">
    <path
       style="fill:#0000ff;stroke-width:0.576792;stroke-linecap:round"
       id="path615"
       d="m 145.6958,150.62604 c 2.89841,-1.23921 5.94823,-2.08357 8.96737,-2.97206 4.03872,-1.07508 8.12452,-1.97575 12.25754,-2.59834 3.01283,-0.42502 6.03234,-0.81029 9.06413,-1.0718 1.5695,-0.12842 3.14395,-0.16895 4.71806,-0.17508 0.85026,7.9e-4 1.7005,0.008 2.55075,0.0121 0.72612,0.003 1.45225,0.003 2.17838,0.003 0.95083,-0.0498 1.88754,0.13329 2.83007,0.23161 1.24273,0.0991 2.4907,0.10843 3.73672,0.11843 1.36455,0.0376 2.69284,0.35796 4.03843,0.54971 0.43502,0.10724 0.53613,0.0996 0.91504,0.30711 0.11981,0.0656 0.46087,0.29287 0.34145,0.22658 -5.09288,-2.82727 -3.45814,-2.32709 -2.52142,-1.19546 0.37434,0.64948 0.65115,1.35636 0.90165,2.06202 0.30732,0.78945 0.54408,1.60301 0.80367,2.4087 0.31983,0.98951 0.49054,2.01709 0.75904,3.02091 0.29838,1.02303 0.58513,2.0444 0.75684,3.09696 0.18807,1.28864 0.16322,2.59315 0.25045,3.88928 0.0736,1.31368 0.23137,2.6139 0.42991,3.91329 0.11112,1.05136 0.23188,2.08518 0.4891,3.11188 0.324,1.03802 0.68155,2.06513 1.0075,3.10239 0.44764,1.48036 0.87322,2.96549 1.40818,4.41722 0.40621,1.23449 0.92131,2.43304 1.29333,3.67801 0.33033,1.16494 0.70072,2.31805 1.02925,3.48346 0.30995,1.36625 0.53937,2.7507 0.79699,4.12804 0.30448,1.72868 0.37302,3.48499 0.42073,5.23585 -0.0176,1.2242 0.091,2.45893 -0.027,3.67969 -0.0549,0.18181 -0.0757,0.36746 -0.2321,0.49821 -0.36219,0.30279 -1.14993,0.23881 -1.57261,0.26352 -1.45315,0.0437 -2.90759,0.028 -4.3612,0.0186 -1.69872,-0.007 -3.39744,-0.01 -5.09618,-0.008 -1.85931,8e-5 -3.71862,-0.002 -5.57792,-5.2e-4 -2.02794,0.0862 -4.037,0.40313 -5.99846,0.91767 -1.61297,0.36766 -3.19803,0.81444 -4.7393,1.41662 -1.35607,0.58044 -2.72609,1.12668 -4.10285,1.65618 -1.55921,0.68277 -3.14526,1.30317 -4.71958,1.95186 -1.71197,0.73593 -3.43596,1.45081 -5.20631,2.03423 -1.70899,0.57146 -3.4253,1.10376 -5.15117,1.62003 -1.66807,0.57327 -3.32299,1.19429 -4.9658,1.83826 -1.39859,0.51998 -2.70171,1.25347 -4.06398,1.85314 -0.58275,0.35814 -1.28247,0.46646 -1.87615,0.79569 -0.0198,0.011 -0.5571,0.37822 -0.60272,0.40934 -0.46988,0.2997 -0.93613,0.59716 -1.42236,0.87121 -0.48826,0.41175 -1.14426,0.54996 -1.74199,0.74052 -0.33028,0.11633 -0.58583,0.3519 -0.86185,0.55664 0,0 3.34617,2.12035 3.34617,2.12035 v 0 c 0.24731,-0.18105 0.4848,-0.36853 0.78538,-0.45543 0.62577,-0.2086 1.27659,-0.38034 1.79964,-0.80326 0.48354,-0.29089 0.9645,-0.58135 1.43084,-0.8992 0.74678,-0.5095 1.60447,-0.76756 2.41167,-1.16741 1.3386,-0.62448 2.63611,-1.34066 4.02514,-1.85436 1.63825,-0.64046 3.2844,-1.26972 4.9605,-1.80408 1.72047,-0.52305 3.42364,-1.08932 5.13327,-1.64662 1.77375,-0.60468 3.51326,-1.30642 5.23473,-2.04646 1.57552,-0.64795 3.15679,-1.28175 4.73028,-1.9339 1.37481,-0.52996 2.73637,-1.09229 4.09548,-1.66108 1.52972,-0.57977 3.10463,-1.0057 4.69293,-1.39366 1.94631,-0.48968 3.93767,-0.79055 5.94719,-0.83443 1.85965,7.9e-4 3.71929,-0.001 5.57894,0.002 1.70331,0.005 3.40662,0.008 5.1099,0.02 1.46592,0.006 2.93299,0.0353 4.39806,-0.0293 0.91907,-0.0782 1.87457,-0.1672 2.10855,-1.22011 0.13083,-1.24211 -0.0119,-2.50145 0.005,-3.74778 -0.0513,-1.76593 -0.11807,-3.537 -0.38849,-5.28548 -0.24222,-1.38553 -0.49185,-2.77167 -0.76501,-4.15052 -0.30914,-1.17211 -0.68711,-2.32413 -1.03089,-3.48605 -0.32633,-1.27206 -0.8883,-2.46713 -1.29337,-3.71595 -0.54655,-1.43683 -0.98064,-2.90788 -1.4045,-4.385 -0.28891,-1.03989 -0.64786,-2.06328 -1.00326,-3.08209 -0.25548,-1.01883 -0.42589,-2.03038 -0.50546,-3.07987 -0.2042,-1.2932 -0.4059,-2.58274 -0.46488,-3.89356 -0.0934,-1.30239 -0.0471,-2.61342 -0.22284,-3.91042 -0.14712,-1.06885 -0.40473,-2.1066 -0.7254,-3.13656 -0.29692,-1.00066 -0.44956,-2.03371 -0.74892,-3.03305 -0.26186,-0.80242 -0.46757,-1.62434 -0.78976,-2.40574 -0.23221,-0.74216 -0.55524,-1.44989 -0.85292,-2.16738 -1.11238,-1.82833 -3.45203,-2.79871 -5.50034,-3.26542 -1.34896,-0.20863 -2.69206,-0.48232 -4.06263,-0.50092 -1.24482,-0.0165 -2.49225,-0.0317 -3.73152,-0.16197 -0.95419,-0.1071 -1.9061,-0.25317 -2.86986,-0.2083 -0.72553,-5.3e-4 -1.45107,-0.001 -2.1766,-0.004 -0.84481,-0.002 -1.68967,-0.005 -2.53442,0.007 -1.56079,0.0286 -3.12066,0.097 -4.67517,0.24576 -3.01048,0.31008 -6.0126,0.69903 -9.00651,1.14072 -4.12604,0.66432 -8.20781,1.5808 -12.24317,2.66708 -3.07329,0.88764 -6.15239,1.76144 -9.16856,2.83184 0,0 3.26706,2.23746 3.26706,2.23746 z" />
    <path
       style="fill:#0000ff;stroke-width:0.576792;stroke-linecap:round"
       id="path619"
       d="m 192.52067,144.61456 c -1.15349,0.59725 -2.29155,1.21944 -3.38503,1.92148 -1.44267,1.03407 -2.83828,2.13129 -4.1641,3.31139 -1.27523,1.13475 -2.51494,2.2955 -3.64746,3.57399 -1.4623,1.5463 -2.80882,3.20085 -4.08901,4.89968 -1.22253,1.53245 -2.25907,3.20008 -3.44567,4.75812 -0.85205,1.19628 -1.85173,2.27355 -2.86189,3.33559 -1.06983,1.28682 -2.26182,2.45524 -3.43007,3.6497 -0.9852,0.9466 -1.89547,1.95914 -2.81452,2.9677 -0.78597,0.97227 -1.56979,1.94057 -2.31345,2.94623 -0.63564,0.84632 -1.25686,1.70327 -1.86764,2.56771 -0.71652,0.9249 -1.38779,1.88114 -2.05287,2.84324 -0.55419,0.75873 -1.1325,1.54124 -1.90635,2.08931 -0.56797,0.32674 -1.13662,0.3552 -1.72753,0.0947 0.37647,0.37198 -1.33914,-0.73814 -0.818,-0.43869 5.46695,3.14133 3.62793,2.20905 2.49384,1.34163 -0.62131,-0.54012 -1.21137,-1.12249 -1.78179,-1.71685 -0.52032,-0.54137 -1.03456,-1.0881 -1.58173,-1.60265 -0.51629,-0.50494 -0.99312,-1.05245 -1.53112,-1.53432 -0.6016,-0.53739 -1.26883,-0.98564 -1.93263,-1.43999 -1.61112,-1.08924 -3.35659,-1.99804 -5.03673,-2.95723 -0.1357,-0.0775 -0.5441,-0.30758 -0.40864,-0.22969 0.98958,0.56907 1.98069,1.13548 2.97104,1.70321 -1.99291,-0.49922 -3.44905,-2.37876 -5.44031,-2.9402 -0.58843,-0.21392 -1.13012,-0.50813 -1.7361,-0.68279 0,0 3.12418,2.42412 3.12418,2.42412 v 0 c 0.58546,0.21484 1.13806,0.50792 1.73653,0.68854 1.42887,0.57118 4.3899,2.54389 -1.35955,-0.91139 1.25701,0.73104 2.51214,1.46532 3.77102,2.19312 0.1353,0.0782 0.54614,0.30404 0.4114,0.22486 -0.98169,-0.57694 -1.96714,-1.14748 -2.95245,-1.71823 -1.29161,-0.74817 2.59918,1.43469 1.24881,0.75904 0.64734,0.46668 1.3535,0.85694 1.92801,1.41775 0.59902,0.39943 1.04743,0.99493 1.55104,1.50342 0.54957,0.5108 1.06755,1.04208 1.59751,1.57207 0.5363,0.63591 1.18139,1.17639 1.75641,1.77487 1.51045,1.28133 3.27344,2.29865 5.12374,2.99163 0.69743,0.13201 1.34299,0.005 1.93457,-0.40564 0.76934,-0.61772 1.37911,-1.41029 1.94949,-2.20968 0.66412,-0.9611 1.33126,-1.91927 2.05521,-2.83684 0.61045,-0.86146 1.23498,-1.71262 1.8581,-2.56508 0.72975,-0.99882 1.50837,-1.95424 2.28879,-2.91333 0.9129,-1.00512 1.81543,-2.01703 2.78261,-2.97168 1.16364,-1.2013 2.37178,-2.357 3.43539,-3.6522 1.019,-1.07588 2.05359,-2.14707 2.90277,-3.3667 1.14162,-1.58711 2.16344,-3.25839 3.37972,-4.79258 1.28086,-1.68787 2.66895,-3.29666 4.11109,-4.84881 1.13765,-1.25298 2.37142,-2.39974 3.62341,-3.53708 1.31631,-1.1673 2.70281,-2.24912 4.15387,-3.24473 1.08671,-0.68852 2.21857,-1.30884 3.38967,-1.84184 0,0 -3.29358,-2.1949 -3.29358,-2.1949 z" />
    <path
       style="fill:#0000ff;stroke-width:0.576792;stroke-linecap:round"
       id="path621"
       d="m 144.3814,147.97173 c -0.82591,0.55456 -1.76114,0.87155 -2.72872,1.06524 -0.36864,0.0989 -0.71659,0.21277 -1.05701,0.3833 0,0 3.30055,2.18714 3.30055,2.18714 v 0 c 0.32388,-0.13387 0.65449,-0.24101 0.99555,-0.32414 0.999,-0.24558 1.95407,-0.61998 2.82472,-1.17612 0,0 -3.33509,-2.13542 -3.33509,-2.13542 z" />
    <path
       style="fill:#0000ff;stroke-width:0.576792;stroke-linecap:round"
       id="path623"
       d="m 193.85823,147.14157 c 0.6113,-0.60688 1.24457,-1.19098 1.89301,-1.75827 0,0 -3.34514,-2.07895 -3.34514,-2.07895 v 0 c -0.64276,0.57096 -1.25582,1.1729 -1.90277,1.73926 0,0 3.3549,2.09796 3.3549,2.09796 z" />
    <path
       style="fill:#2b0000;stroke-width:0.576792;stroke-linecap:round"
       id="path857"
       d="m 39.892384,169.34451 c -0.955283,-1.62214 -1.572223,-3.4044 -2.211488,-5.16612 -0.476353,-1.70008 -1.003784,-3.38803 -1.461849,-5.09394 -0.357436,-1.4314 -0.442931,-2.90694 -0.625057,-4.36587 -0.257445,-1.53943 -0.490204,-3.08254 -0.769448,-4.6183 -0.413843,-1.71819 -0.703527,-3.45452 -0.861245,-5.21384 -0.0916,-1.35019 -0.08036,-2.70086 -0.211736,-4.0481 -0.159488,-1.26359 -0.27137,-2.11868 0.559382,-3.15981 1.093801,-0.90138 2.502736,-1.26743 3.818552,-1.72554 2.069668,-0.58271 4.112937,-1.24534 6.157235,-1.91134 2.489163,-0.77261 4.950854,-1.60732 7.489909,-2.2028 2.741451,-0.57017 5.485112,-1.11706 8.211643,-1.75645 2.034045,-0.60584 4.092712,-1.05905 6.174552,-1.45743 1.457576,-0.3121 2.944461,-0.4908 4.399494,-0.81009 0,0 -3.225503,-2.24167 -3.225503,-2.24167 v 0 c -1.4482,0.29827 -2.909229,0.53679 -4.358775,0.82965 -2.07477,0.4062 -4.115462,0.91032 -6.148038,1.49486 -2.722753,0.64596 -5.462514,1.20347 -8.204436,1.76117 -2.548186,0.60131 -5.013237,1.4704 -7.520127,2.22001 -2.057885,0.65956 -4.118825,1.30127 -6.19727,1.89363 -1.389702,0.47675 -2.872531,0.87339 -3.977584,1.89326 -0.859682,1.1431 -0.895342,2.04214 -0.689483,3.42753 0.137075,1.34976 0.152373,2.70231 0.240768,4.05608 0.140854,1.77143 0.42078,3.52045 0.845434,5.24722 0.275685,1.52639 0.492699,3.06049 0.756425,4.58865 0.189082,1.47717 0.28929,2.96715 0.621938,4.42271 0.453673,1.71805 1.010417,3.40792 1.452848,5.12869 0.648999,1.75765 1.261509,3.53561 2.134269,5.19808 0,0 3.59959,1.60976 3.59959,1.60976 z" />
    <path
       style="fill:#2b0000;stroke-width:0.576792;stroke-linecap:round"
       id="path859"
       d="m 35.164375,135.23837 c 1.50748,-2.43014 2.911729,-4.92251 4.314545,-7.41448 3.711537,-6.1328 6.544489,-12.55051 9.117385,-18.68265 0.978676,-2.4902 2.033844,-4.95044 3.01802,-7.43811 0.838018,-2.025291 1.616216,-4.074102 2.415239,-6.114669 0.615013,-1.699377 1.204113,-3.409583 1.764741,-5.127901 0.454483,-1.164648 0.876935,-2.343456 1.492338,-3.434746 0.434041,-0.862214 0.875993,-1.711471 1.51747,-2.440654 0.600691,-0.847889 1.282657,-1.632509 1.91499,-2.455376 0.588643,-0.736637 1.109769,-1.533872 1.802718,-2.177518 0.519599,-0.613561 1.035603,-1.070613 1.813324,-1.301557 0.854197,-0.242581 1.612223,0.02915 2.357237,0.449987 2.068957,1.043395 -3.358473,-1.949619 -2.510944,-1.476015 1.272159,0.710891 2.5243,1.45742 3.800838,2.160416 0.976741,0.537895 -1.933131,-1.111954 -2.901339,-1.665058 -0.176924,-0.10107 0.351536,0.206129 0.527455,0.308938 0.192304,0.112388 0.38481,0.224428 0.577215,0.336643 1.309669,0.745511 2.619338,1.491022 3.929004,2.236536 0.183401,0.100769 0.731816,0.406255 0.550198,0.302308 -0.959911,-0.549389 -1.920512,-1.097624 -2.885146,-1.638681 -0.155967,-0.08748 0.303461,0.189463 0.458928,0.277828 3.710119,2.108825 2.539351,1.516502 4.251134,2.369087 -7.665931,-4.377573 0.698291,0.399603 0.95159,0.54002 0.682644,0.378428 1.480124,0.641072 2.206808,0.922041 1.167754,0.356103 2.281412,0.858049 3.438093,1.24477 1.041988,0.373073 2.112015,0.667647 3.11385,1.142386 0.717999,0.451382 1.632,0.416515 2.312294,0.912312 l -3.080147,-2.489343 v 0 C 80.6742,84.264352 79.844216,84.12557 79.117389,83.71912 78.094664,83.294572 77.032491,82.97716 75.988988,82.608439 74.842636,82.202206 73.718831,81.73469 72.564057,81.351155 71.999532,81.121883 71.435376,80.889624 70.88209,80.633989 c -0.168666,-0.07793 -0.66077,-0.338871 -0.501766,-0.24275 1.009105,0.610002 7.990329,4.626062 -0.967576,-0.538269 -2.207956,-1.091165 4.263919,2.544728 2.027949,1.238851 -1.277913,-0.746342 -2.549382,-1.503701 -3.828891,-2.247305 -0.180208,-0.10473 -0.729123,-0.404066 -0.549973,-0.297532 0.922091,0.548349 1.852773,1.082122 2.779162,1.623182 -1.643584,-0.953662 -3.261379,-1.931308 -4.931291,-2.850314 -0.996826,-0.548584 3.949049,2.26169 2.94917,1.718686 -6.132219,-3.330231 -2.223953,-1.411341 -4.243213,-2.396231 -0.841097,-0.35918 -1.667893,-0.530111 -2.554779,-0.207669 -0.784569,0.307234 -1.352254,0.813729 -1.894438,1.450888 -0.689303,0.675685 -1.239031,1.471597 -1.831121,2.23157 -0.624535,0.81852 -1.297426,1.600115 -1.904097,2.433042 -0.651614,0.755446 -1.114825,1.622938 -1.549305,2.515825 -0.622329,1.117841 -1.058778,2.320364 -1.505619,3.516508 -0.547032,1.716524 -1.118098,3.426664 -1.724049,5.123185 -0.799703,2.040925 -1.567352,4.094377 -2.402192,6.121826 -0.968454,2.493568 -2.000067,4.963638 -2.968831,7.457528 -2.554884,6.67568 -5.787567,12.89117 -9.070967,18.65477 -1.417185,2.47266 -2.808343,4.9707 -4.445503,7.30652 z"
       sodipodi:nodetypes="ccccccccccccssssccssccscccccscccsscssscssccccccccccccc" />
    <path
       style="fill:#2b0000;stroke-width:0.576792;stroke-linecap:round"
       id="path863"
       d="m 44.994755,132.09146 c -1.40416,-2.5479 -2.5331,-5.2351 -3.742778,-7.87793 -1.231492,-2.61451 -2.183561,-5.34601 -2.986711,-8.11863 -0.49462,-1.82724 -1.011492,-3.64938 -1.465861,-5.48719 -0.374602,-1.46244 -0.15993,-1.67214 1.086541,-2.43619 2.010801,-0.99538 4.12165,-1.77782 6.220719,-2.56557 2.840185,-1.10376 5.738987,-2.04027 8.613142,-3.04766 2.966167,-0.93426 5.934655,-1.86009 8.860883,-2.913841 2.685656,-1.023882 5.291283,-2.239386 7.990734,-3.22725 2.095563,-0.75696 4.134578,-1.653357 6.209877,-2.460887 1.367115,-0.512535 2.755855,-0.96199 4.146788,-1.40593 0.995981,-0.325538 2.033098,-0.551537 2.985214,-0.995211 0.734266,-0.336092 1.506127,-0.566677 2.262164,-0.846161 0.14275,-0.04716 0.285501,-0.09432 0.428252,-0.141476 0,0 -3.262829,-2.213028 -3.262829,-2.213028 v 0 c -0.144359,0.04906 -0.288721,0.09813 -0.43308,0.147188 -0.769358,0.263678 -1.542013,0.524261 -2.279153,0.870429 -0.951248,0.399148 -1.959578,0.649647 -2.93601,0.979228 -1.387848,0.457473 -2.784512,0.888653 -4.138895,1.440339 -2.055442,0.820721 -4.070297,1.73976 -6.154627,2.489324 -2.684557,1.018826 -5.30081,2.206429 -7.985117,3.226731 -2.916383,1.06207 -5.880621,1.981587 -8.837427,2.923505 -2.888639,0.99216 -5.788681,1.9506 -8.644363,3.03631 -2.138855,0.78378 -4.288123,1.57363 -6.330529,2.58595 -1.266098,0.79446 -1.772875,1.34075 -1.328973,2.8654 0.4734,1.85056 1.022593,3.68131 1.515686,5.52672 0.817476,2.7968 1.786025,5.55193 3.018616,8.19538 1.199898,2.60876 2.309418,5.26093 3.599624,7.82708 0,0 3.588113,1.62337 3.588113,1.62337 z" />
    <path
       style="fill:#cccccc;stroke-width:3.00626;stroke-linecap:round"
       d="m 157.24328,463.33149 c -2.67406,-5.86784 -4.86192,-11.13005 -4.86192,-11.6938 0,-0.56376 4.61807,-10.57035 10.26238,-22.23686 5.64431,-11.66652 13.64716,-29.54638 17.7841,-39.73302 l 7.52171,-18.52116 23.24166,-7.8877 c 12.7829,-4.33824 35.6528,-12.84842 50.82198,-18.91153 15.16919,-6.0631 27.74804,-10.86989 27.95301,-10.68175 0.20497,0.18814 -1.76886,4.93198 -4.38628,10.54186 -19.33715,41.44495 -27.73098,62.65865 -37.35239,94.40059 -2.72873,9.00232 -5.08715,16.49136 -5.24095,16.64231 -0.15379,0.15096 -7.41603,1.91228 -16.13831,3.91405 -21.57115,4.95059 -57.91615,13.28174 -61.67564,14.13755 -2.69241,0.61289 -3.66183,-0.60608 -7.92935,-9.97054 z"
       id="path1082"
       transform="matrix(0.26458333,0,0,0.26458333,1.4594595,5.1081081)" />
    <path
       style="fill:#cccccc;stroke-width:3.00626;stroke-linecap:round"
       d="m 139.30485,416.87041 c -6.53784,-24.11042 -6.42517,-22.96947 -2.52082,-25.5277 4.12254,-2.70119 29.57393,-13.07583 30.29908,-12.35068 1.16553,1.16552 -19.75161,47.83724 -22.84758,50.97904 -0.59447,0.60327 -2.81327,-5.29203 -4.93068,-13.10066 z"
       id="path1086"
       transform="matrix(0.26458333,0,0,0.26458333,1.4594595,5.1081081)" />
    <text
       xml:space="preserve"
       style="font-size:5.96775px;font-family:'Vladimir Script';-inkscape-font-specification:'Vladimir Script, Normal';fill:#cccccc;stroke-width:0.60983;stroke-linecap:round"
       x="-52.170551"
       y="117.27177"
       id="text1144"
       transform="matrix(0.69986303,-0.6362196,0.71119073,0.78233382,0,0)"><tspan
         sodipodi:role="line"
         id="tspan1142"
         style="font-size:5.96775px;fill:#241c1c;stroke-width:0.60983"
         x="-52.170551"
         y="117.27177">Nikdy to nevzdávej</tspan></text>
    <path
       style="fill:#ffd5d5;stroke-width:3.00626;stroke-linecap:round"
       d="m 296.68026,867.76338 c -6.8751,-13.51239 -23.29347,-75.62985 -20.68049,-78.24282 0.45423,-0.45424 8.81825,-0.14307 18.58671,0.6915 33.93208,2.89896 53.72853,3.98255 73.84298,4.04192 11.12524,0.0328 21.24206,0.44895 22.48182,0.92469 1.61391,0.61931 -1.29345,2.99174 -10.23658,8.35312 -16.27184,9.75492 -26.63849,19.51354 -38.22253,35.98072 -12.92619,18.37508 -23.12143,28.66655 -30.10486,30.38901 -13.6739,3.37264 -12.80267,3.49154 -15.66705,-2.13814 z"
       id="path1440"
       transform="matrix(0.26458333,0,0,0.26458333,1.4594595,5.1081081)" />
    <path
       style="fill:#ffd5d5;stroke-width:3.00626;stroke-linecap:round"
       d="m 229.88924,747.22699 c -1.34867,-0.75475 -10.34158,-2.23346 -19.98426,-3.28602 -19.76796,-2.15781 -23.0176,-2.95032 -42.35444,-10.32929 -18.99294,-7.24773 -53.78696,-17.87274 -59.07419,-18.03941 -2.39832,-0.0756 -5.86379,-0.55763 -7.70104,-1.07116 -3.145841,-0.8793 -2.812923,-1.35347 5.71419,-8.1387 11.04973,-8.79254 23.28371,-21.8265 27.833,-29.653 1.85991,-3.19975 5.3385,-10.78219 7.73019,-16.84987 7.22516,-18.33001 10.65799,-23.37835 24.3612,-35.82565 7.11482,-6.46273 13.53232,-11.75043 14.26112,-11.75043 3.13773,0 19.30783,15.5611 27.55653,26.51869 4.92998,6.549 10.29579,12.5273 11.924,13.28511 3.61038,1.68034 4.12911,5.13579 6.03166,40.17918 0.76179,14.0315 2.57708,32.32757 4.03399,40.65795 1.4569,8.33037 2.52995,15.2651 2.38454,15.4105 -0.1454,0.14541 -1.36783,-0.35315 -2.71649,-1.1079 z"
       id="path1442"
       transform="matrix(0.26458333,0,0,0.26458333,1.4594595,5.1081081)" />
    <path
       style="fill:#ffd5d5;stroke-width:3.00626;stroke-linecap:round"
       d="m 275.80336,868.33049 c -10.33571,-4.55043 -29.26057,-15.99657 -30.93921,-18.71266 -0.4889,-0.79106 -10.39367,-9.17117 -22.01061,-18.62247 -11.61695,-9.45131 -26.64056,-23.19693 -33.3858,-30.54583 -6.74524,-7.34889 -15.98743,-16.22756 -20.53818,-19.73038 -4.55076,-3.50282 -14.47968,-12.18083 -22.06427,-19.28448 -7.58459,-7.10365 -18.75463,-16.37222 -24.8223,-20.59682 -13.25868,-9.23134 -25.904606,-19.67894 -24.96137,-20.62217 0.375831,-0.37583 2.351091,0.62853 4.38947,2.23192 2.80139,2.20357 5.65102,2.91524 11.67303,2.91524 8.83102,0 37.21166,8.15848 64.8825,18.65154 18.84135,7.14482 23.65232,8.31556 41.7393,10.15713 7.48159,0.76175 13.92697,1.70909 14.32307,2.10518 0.39609,0.39609 0.9436,3.99685 1.21668,8.00169 1.42205,20.85498 1.51995,21.11867 9.17054,24.70201 5.0958,2.38675 7.11944,2.80004 7.53951,1.5398 0.31581,-0.94741 2.54964,-1.72257 4.96406,-1.72257 h 4.38987 l 3.21774,15.51394 c 5.88734,28.38504 16.41815,60.14346 21.6917,65.41701 4.33169,4.33168 1.75872,3.9883 -10.47573,-1.39808 z"
       id="path1444"
       transform="matrix(0.26458333,0,0,0.26458333,1.4594595,5.1081081)" />
    <path
       style="fill:#ac9d93;stroke-width:3.00626;stroke-linecap:round"
       d="m 219.95964,638.99062 c -5.61943,-8.57635 -24.24903,-24.26061 -38.04092,-32.02669 -9.5194,-5.36026 -14.80778,-5.56513 -19.29911,-0.7476 -1.83874,1.97228 -6.30003,6.07141 -9.91398,9.10916 l -6.57082,5.5232 -3.9877,-8.79469 c -5.07892,-11.20132 -10.5697,-31.60413 -12.5563,-46.65711 -0.85082,-6.4469 -2.45487,-16.06101 -3.56456,-21.36468 -1.10969,-5.30368 -2.39964,-16.31999 -2.86656,-24.4807 -0.74841,-13.08049 -0.55559,-15.16182 1.6282,-17.57487 3.37722,-3.73179 49.16825,-18.28566 78.61709,-24.98706 12.89381,-2.93412 25.92552,-5.94751 28.95935,-6.69641 3.03384,-0.74891 5.89571,-1.37646 6.3597,-1.39456 0.464,-0.0181 -1.21997,8.37734 -3.74217,18.65652 -12.2402,49.88484 -16.49608,95.4484 -13.06717,139.89752 0.61434,7.96382 0.97381,14.65418 0.7988,14.86747 -0.175,0.21328 -1.41423,-1.285 -2.75385,-3.3295 z"
       id="path1515"
       transform="matrix(0.26458333,0,0,0.26458333,1.4594595,5.1081081)" />
    <path
       style="fill:#ac9d93;stroke-width:3.00626;stroke-linecap:round"
       d="m 195.16202,353.33629 c 0.54313,-1.30708 3.91409,-10.44376 7.49101,-20.30373 8.02106,-22.11045 9.51384,-25.05214 19.12396,-37.68584 8.84422,-11.62682 14.47752,-16.78532 18.33027,-16.78532 1.48762,0 9.78366,3.93658 18.43565,8.74797 8.65199,4.81138 21.50492,10.7861 28.56207,13.27715 7.05715,2.49105 13.33904,4.98865 13.95977,5.55023 0.62073,0.56158 0.21683,3.20322 -0.89756,5.87031 -1.84336,4.4118 -3.06479,5.1914 -13.53974,8.642 -6.33248,2.08602 -25.47614,9.36887 -42.54147,16.18413 -17.06534,6.81525 -35.27669,13.85122 -40.46968,15.63549 -8.3823,2.88009 -9.33098,2.97744 -8.45428,0.86761 z"
       id="path1517"
       transform="matrix(0.26458333,0,0,0.26458333,1.4594595,5.1081081)" />
    <path
       style="fill:#00ffff;stroke-width:3.00626;stroke-linecap:round"
       d="m 139.01874,473.70504 c 2.79868,-4.92296 5.47865,-8.95659 5.95548,-8.96361 0.47682,-0.007 1.64832,1.87362 2.60333,4.17921 0.955,2.30558 2.96252,5.0508 4.46115,6.10048 2.516,1.76227 1.98813,2.1279 -6.88906,4.77164 -5.28761,1.57472 -9.97509,2.86312 -10.41663,2.86312 -0.44153,0 1.48705,-4.02787 4.28573,-8.95084 z"
       id="path1519"
       transform="matrix(0.26458333,0,0,0.26458333,1.4594595,5.1081081)" />
    <path
       style="fill:#00ffff;stroke-width:3.00626;stroke-linecap:round"
       d="m 470.93424,781.80352 c -15.92764,-1.36582 -41.99106,-3.15515 -57.9187,-3.97629 -15.92765,-0.82114 -36.40605,-2.07779 -45.50756,-2.79255 -9.10151,-0.71475 -36.22074,-1.73099 -60.26495,-2.25832 -39.86031,-0.87418 -43.61032,-1.15764 -42.51017,-3.21328 3.43674,-6.42162 31.95246,-32.99501 49.68297,-46.29887 28.62051,-21.47502 83.07648,-75.89653 104.15156,-104.08566 8.22219,-10.99766 20.0228,-26.2074 26.22355,-33.79943 6.20075,-7.59201 13.61842,-17.46844 16.48372,-21.94762 5.60239,-8.75794 11.24131,-14.46919 14.35512,-14.53923 1.54359,-0.0348 1.47349,-0.5563 -0.34475,-2.56544 -1.25525,-1.38703 -2.28226,-3.27821 -2.28226,-4.20262 0,-0.92443 -6.36072,-8.06569 -14.13493,-15.8695 -10.52422,-10.56428 -17.12916,-18.83796 -25.85656,-32.38924 -6.4469,-10.01027 -16.16948,-24.53966 -21.60573,-32.28751 -5.43625,-7.74786 -15.63412,-23.39537 -22.66194,-34.77226 -7.02782,-11.37689 -17.85207,-28.13194 -24.0539,-37.23345 -15.25687,-22.39029 -22.94878,-36.12627 -28.95842,-51.71313 -5.13283,-13.31272 -13.43518,-49.23844 -11.63588,-50.35047 0.54215,-0.33507 8.6701,2.52905 18.0621,6.36471 22.46763,9.17569 43.00368,14.87505 83.61043,23.20436 42.4162,8.70047 48.09397,9.42787 86.37644,11.06603 17.35636,0.7427 31.90026,1.69361 32.31977,2.11313 0.41952,0.41951 -0.87144,9.90346 -2.8688,21.07545 -5.16408,28.88474 -4.93805,26.46822 -10.67128,114.08584 -0.79407,12.13535 -2.10298,30.75208 -2.90868,41.37051 -0.80569,10.61843 -1.99948,36.37157 -2.65284,57.2292 -0.82809,26.43551 -2.04584,43.30708 -4.02009,55.69731 -2.52521,15.84811 -2.83036,23.91826 -2.81577,74.46691 0.0179,62.01568 0.29143,64.67094 8.21991,79.79624 2.29618,4.38048 4.17487,8.576 4.17487,9.32337 0,2.02252 -26.70891,1.35546 -59.98723,-1.49819 z"
       id="path1590"
       transform="matrix(0.26458333,0,0,0.26458333,1.4594595,5.1081081)" />
    <path
       style="fill:#00ffff;stroke-width:3.00626;stroke-linecap:round"
       d="m 245.70068,744.77343 c -3.85463,-24.07751 -5.41847,-39.31722 -6.27304,-61.13095 l -0.689,-17.58755 3.36318,0.8441 c 4.51064,1.1321 4.23853,-0.85828 -0.77388,-5.66047 -3.42257,-3.27904 -4.13356,-5.05025 -4.11684,-10.25587 0.0111,-3.46078 -0.72884,-16.33335 -1.64435,-28.6057 -2.80504,-37.60141 2.07981,-80.94032 14.89642,-132.16267 5.6551,-22.60097 6.69386,-25.48565 9.17719,-25.48565 2.57495,0 2.62553,-0.19421 0.62851,-2.41328 -1.99127,-2.2127 -1.68705,-3.96062 3.66021,-21.03001 8.58262,-27.39722 13.65891,-40.44259 27.36717,-70.32986 6.78364,-14.78995 13.93144,-30.45903 15.88399,-34.82017 1.95255,-4.36114 3.91956,-7.92935 4.37112,-7.92935 0.45156,0 1.9605,5.1196 3.3532,11.37689 5.93522,26.66635 16.25223,43.76844 43.28595,71.75338 23.71476,24.54921 26.92826,28.59999 36.88637,46.49731 13.19726,23.71893 21.15609,34.82874 38.76811,54.11679 4.6699,5.11429 12.0692,13.67269 16.44289,19.01864 l 7.95217,9.71991 -3.4686,3.73514 c -1.90773,2.05431 -5.74954,7.35758 -8.53733,11.78504 -2.78781,4.42744 -8.98115,12.80497 -13.763,18.61672 -4.78184,5.81175 -16.36649,20.80602 -25.74365,33.32059 -25.92309,34.59643 -72.38786,81.06345 -107.79648,107.80168 -18.55534,14.01176 -31.23816,25.51775 -42.41401,38.47846 l -7.81919,9.06797 z"
       id="path1592"
       transform="matrix(0.26458333,0,0,0.26458333,1.4594595,5.1081081)" />
    <path
       style="fill:#000080;stroke-width:3.00626;stroke-linecap:round"
       d="m 356.12345,398.01961 c -7.70534,-8.77589 -20.86584,-30.43832 -19.38919,-31.91496 0.24177,-0.24177 5.90987,7.63897 12.59577,17.51275 12.10242,17.87293 14.72797,23.43917 6.79342,14.40221 z"
       id="path1736"
       transform="matrix(0.26458333,0,0,0.26458333,1.4594595,5.1081081)" />
    <path
       style="fill:#000080;stroke-width:3.00626;stroke-linecap:round"
       d="m 475.07129,798.99201 c -4.55075,-0.27903 -20.99553,-1.43874 -36.54394,-2.57713 -15.54842,-1.13839 -48.22457,-2.70714 -72.61368,-3.48607 -24.3891,-0.77896 -48.90112,-2.01516 -54.47116,-2.74714 -17.32702,-2.27699 -60.46145,-3.43275 -60.46145,-1.62002 0,0.97715 -2.32894,0.44766 -6.10928,-1.38898 l -6.10929,-2.96812 -0.93866,-10.45937 c -0.51626,-5.75265 -2.36662,-18.561 -4.11192,-28.463 -1.74529,-9.90201 -3.85948,-25.10567 -4.69819,-33.78592 -2.56354,-26.53145 -6.99574,-101.7073 -6.99382,-118.62428 0.004,-31.1286 5.36857,-68.53356 15.83924,-110.43089 13.21757,-52.88877 22.97713,-80.98352 43.51831,-125.27574 18.65781,-40.23119 23.34131,-51.72542 26.31741,-64.5881 1.67493,-7.23904 3.79965,-13.18992 4.85381,-13.59443 1.03117,-0.3957 8.8544,2.07068 17.38495,5.48084 28.95482,11.57494 43.52858,15.62857 90.06679,25.05168 37.73573,7.64077 46.78707,8.69987 88.16729,10.31643 l 33.0964,1.29294 8.03415,4.3905 c 4.4188,2.41477 8.39621,5.33399 8.83873,6.48715 0.44251,1.15316 -0.85057,10.85479 -2.8735,21.55917 -5.66982,30.00198 -7.32778,48.02748 -12.63506,137.36846 -1.10388,18.58225 -2.35905,35.81913 -2.78927,38.30417 -0.43023,2.48505 -1.34354,22.34289 -2.02958,44.12854 -0.86924,27.60291 -2.09938,45.04469 -4.05805,57.53749 -2.45716,15.67227 -2.80891,24.34516 -2.79643,68.95084 0.016,57.0471 0.58511,62.17245 8.80089,79.25457 2.72561,5.66704 4.95566,11.07509 4.95566,12.01787 0,0.94279 1.37327,2.4491 3.0517,3.34738 l 3.05169,1.63321 -2.89799,1.07205 c -3.23131,1.19533 -59.91988,2.60848 -72.84575,1.8159 z m -19.65099,-8.40957 c -1.70653,-0.32871 -4.49904,-0.32871 -6.20557,0 -1.70654,0.32869 -0.31028,0.59762 3.10278,0.59762 3.41307,0 4.80933,-0.26893 3.10279,-0.59762 z m -26.54607,-2.56115 c -8.72228,-0.99007 -20.82316,-1.75351 -26.89083,-1.69655 -10.85778,0.10191 -10.79241,0.12163 4.13705,1.24601 8.34305,0.62835 17.03086,1.37241 19.30624,1.65347 2.27537,0.28107 7.55011,0.53041 11.72164,0.5541 4.71992,0.0267 1.59482,-0.63683 -8.2741,-1.75703 z m 103.42626,-4.08956 c 0,-1.15931 -1.79189,-5.65836 -3.98199,-9.99787 -8.3001,-16.44597 -8.42916,-17.65688 -8.42916,-79.08404 0,-50.01665 0.31757,-58.31246 2.88068,-75.25088 1.97608,-13.05908 3.23762,-30.72918 4.01737,-56.27057 0.62517,-20.4784 1.7971,-45.92126 2.6043,-56.53969 0.80719,-10.61843 2.11759,-29.23516 2.91198,-41.37051 5.49012,-83.86771 5.80462,-87.08159 11.90194,-121.62933 1.36539,-7.73631 2.15477,-14.39378 1.75418,-14.79437 -0.40059,-0.40058 -15.27326,-1.36745 -33.05039,-2.14858 -37.50696,-1.64808 -42.73304,-2.3047 -83.34566,-10.47185 -45.41104,-9.1321 -64.82103,-14.6024 -91.97131,-25.92015 -13.31421,-5.55011 -14.3141,-5.76177 -15.28357,-3.23538 -1.17946,3.07362 6.80963,37.02959 11.86455,50.42783 5.93763,15.73787 17.40668,36.50496 29.81954,53.99443 5.11388,7.20537 13.38652,19.9268 18.38362,28.26985 4.99711,8.34305 11.7632,19.06134 15.03575,23.81842 16.03329,23.30646 19.6343,28.66645 32.17436,47.89045 9.6544,14.80029 17.30866,24.60857 26.90414,34.47542 17.60984,18.10787 17.81214,18.53464 11.91294,25.13083 -2.5615,2.86415 -6.39773,8.00005 -8.52496,11.41312 -2.12721,3.41307 -8.9359,12.41115 -15.13042,19.99574 -6.19452,7.5846 -17.82121,22.47798 -25.83711,33.09641 -8.0159,10.61843 -17.89641,23.18327 -21.95669,27.92186 -14.5306,16.95807 -66.87119,65.88435 -85.47935,79.90331 -23.21514,17.48972 -52.83745,47.20638 -48.67965,48.83467 1.46584,0.57405 14.14547,1.11988 28.17697,1.21294 14.03149,0.0931 36.06129,0.70982 48.95509,1.37056 59.64929,3.05674 86.86924,4.75655 122.04299,7.62121 47.87584,3.89914 70.32986,4.32574 70.32986,1.33617 z M 299.49376,717.63915 c 21.53389,-16.35048 73.5044,-65.18431 88.87268,-83.50876 5.30661,-6.32736 16.40384,-20.50238 24.66051,-31.50004 8.25669,-10.99766 18.81018,-24.64993 23.45221,-30.33837 4.64203,-5.68845 9.89079,-12.82486 11.66389,-15.8587 1.7731,-3.03383 5.36658,-7.783 7.98553,-10.55369 l 4.7617,-5.03764 -9.45769,-10.95864 c -5.20174,-6.02726 -15.12576,-17.49562 -22.05341,-25.48525 -15.03841,-17.34379 -20.36006,-25.01598 -33.61815,-48.46705 -9.15265,-16.18933 -12.07214,-19.91178 -32.9873,-42.06001 -12.62026,-13.36431 -24.96608,-27.24056 -27.43514,-30.83611 -7.8394,-11.41605 -15.26474,-28.81644 -19.2397,-45.08591 l -3.85264,-15.76883 -5.95363,12.32129 c -8.15594,16.87907 -26.05735,56.31152 -29.38315,64.72393 -10.94167,27.67629 -26.72827,81.65542 -33.51467,114.59668 -8.48099,41.16688 -11.6953,79.87228 -9.20748,110.87257 0.82172,10.2392 2.15513,30.09704 2.96313,44.12853 2.31213,40.15135 3.88765,57.30698 6.96546,75.84593 1.57398,9.48074 3.14647,18.07586 3.49443,19.10026 0.39012,1.14857 6.74902,-4.52161 16.58839,-14.79176 10.14006,-10.58401 23.0047,-22.00651 35.29503,-31.33843 z m 69.94265,-306.34739 c -7.12337,-11.79514 -12.30548,-19.69 -18.01686,-27.44837 -3.32478,-4.51639 -9.43561,-13.93878 -13.57962,-20.93863 -4.14401,-6.99986 -7.72796,-12.14683 -7.96433,-11.43771 -0.92182,2.76547 8.49478,24.055 15.15171,34.25575 5.81276,8.90718 24.96325,30.74028 26.96325,30.74028 0.31291,0 -0.83646,-2.32709 -2.55415,-5.17132 z"
       id="path1740"
       transform="matrix(0.26458333,0,0,0.26458333,1.4594595,5.1081081)" />
    <path
       style="fill:#000080;stroke-width:3.00626;stroke-linecap:round"
       d="m 475.07129,798.99576 c -4.55075,-0.2811 -20.99553,-1.44249 -36.54394,-2.58088 -15.54842,-1.13839 -48.22457,-2.70714 -72.61368,-3.48607 -24.3891,-0.77896 -48.90112,-2.01516 -54.47116,-2.74714 -17.32702,-2.27699 -60.46145,-3.43275 -60.46145,-1.62002 0,0.978 -2.31733,0.4533 -6.08745,-1.37838 l -6.08745,-2.95751 -0.91396,-9.78047 c -0.50268,-5.37925 -2.73542,-20.57156 -4.96164,-33.76067 -2.22622,-13.18911 -4.67497,-34.59835 -5.44166,-47.57608 -0.76669,-12.97774 -2.31045,-37.20011 -3.43059,-53.82751 -2.58562,-38.38136 -2.57454,-60.29981 0.0419,-82.8562 5.3073,-45.75451 19.76119,-105.08058 36.71686,-150.70454 6.91635,-18.61036 9.90599,-25.48632 31.86257,-73.28172 7.37663,-16.05754 12.22377,-28.81146 14.60102,-38.41853 1.95724,-7.9097 4.34082,-14.68143 5.29684,-15.04828 0.95602,-0.36686 9.67286,2.42395 19.37075,6.20181 30.83603,12.01231 46.5833,16.2219 98.30501,26.2791 31.29453,6.08517 36.80953,6.66 80.85572,8.42755 l 30.52162,1.22481 7.86583,4.4392 c 4.32619,2.44156 8.22358,5.3715 8.66084,6.51099 0.43726,1.13948 -0.86399,11.1339 -2.89167,22.20982 -5.95857,32.54782 -7.21349,46.06971 -12.6195,135.97544 -1.09454,18.20302 -2.3463,35.88891 -2.78169,39.30198 -0.4354,3.41306 -1.36484,23.58118 -2.06545,44.81804 -0.83981,25.45656 -2.22061,44.9555 -4.05264,57.2292 -2.38146,15.95449 -2.78064,25.61742 -2.79142,67.57182 -0.007,27.48875 0.61959,52.88556 1.42911,57.91871 0.79294,4.92998 3.89104,14.29527 6.88468,20.81176 2.99362,6.51649 5.44296,12.5451 5.44296,13.3969 0,0.85181 1.37327,2.28368 3.0517,3.18196 l 3.05169,1.63321 -2.96582,1.09713 c -3.27784,1.21256 -59.68351,2.60342 -72.77792,1.79457 z m -21.00376,-8.34466 c -0.93364,-0.37774 -2.79531,-0.40073 -4.13705,-0.0512 -1.34174,0.34963 -0.57785,0.6587 1.69753,0.6868 2.27537,0.0281 3.37315,-0.25796 2.43952,-0.63571 z m -19.67723,-1.92201 c -3.41307,-0.60627 -13.96255,-1.41626 -23.44329,-1.79997 l -17.23771,-0.69766 18.61673,1.76256 c 10.2392,0.96941 20.78868,1.7794 23.44328,1.79998 4.30416,0.0334 4.1549,-0.0819 -1.37901,-1.06491 z m 97.35635,-4.61432 c 0.40624,-1.05866 -1.09484,-5.5577 -3.33576,-9.99788 -8.40442,-16.6526 -8.52155,-17.74217 -8.52155,-79.26707 0,-49.86493 0.32331,-58.36382 2.86259,-75.25088 1.93577,-12.87338 3.2405,-31.09237 4.02976,-56.27057 0.64195,-20.4784 1.84731,-46.54182 2.67856,-57.91871 0.83127,-11.37689 2.13531,-29.99361 2.89788,-41.3705 5.78396,-86.29259 5.69024,-85.3414 11.84858,-120.25032 1.36478,-7.73631 2.15367,-14.39378 1.75308,-14.79437 -0.40059,-0.40058 -15.27326,-1.36745 -33.05039,-2.14858 -37.92328,-1.66637 -42.49625,-2.2546 -86.3136,-11.1027 -44.22867,-8.93116 -59.53839,-13.27477 -88.46393,-25.09864 -12.02586,-4.91579 -14.40536,-5.49517 -15.49945,-3.77394 -0.71089,1.11838 -0.95684,2.94308 -0.54655,4.05489 0.41029,1.11182 1.99041,8.46993 3.51137,16.35137 5.52553,28.63267 19.67551,59.3379 39.71939,86.19043 2.93008,3.9254 9.83239,14.58377 15.33847,23.68529 5.50607,9.10151 15.52311,24.61545 22.26007,34.47542 6.73697,9.85997 18.53464,27.48386 26.21706,39.16421 9.6445,14.66351 18.10628,25.54811 27.33756,35.16493 17.63005,18.36638 17.78679,18.69555 12.03188,25.26859 -2.50765,2.86415 -6.35225,8.00005 -8.54358,11.41312 -2.19131,3.41307 -9.97082,13.65227 -17.2878,22.75378 -7.31699,9.10151 -18.19275,23.06405 -24.16839,31.02788 -5.97563,7.96382 -14.85541,19.26771 -19.73284,25.11975 -13.74856,16.49577 -67.44882,67.13863 -85.44407,80.57935 -16.0066,11.95537 -39.44917,33.50732 -47.54246,43.7082 -3.40794,4.29541 -3.83698,5.53304 -2.2634,6.52921 1.06788,0.67604 13.42192,1.27119 27.45342,1.32256 14.03149,0.0514 36.06129,0.63402 48.95509,1.29476 59.64929,3.05674 86.86924,4.75655 122.04299,7.62121 46.54172,3.79049 68.71917,4.27335 69.77602,1.51921 z M 264.92719,748.13841 c 8.43801,-8.71031 21.62862,-20.61116 29.31246,-26.44636 19.96077,-15.15843 28.52734,-22.67461 58.63852,-51.44855 25.90227,-24.75195 40.6102,-41.18621 57.42536,-64.16561 4.44002,-6.06768 14.01899,-18.49071 21.28662,-27.60675 7.26761,-9.11604 14.69048,-19.04496 16.49529,-22.06426 1.80478,-3.01932 5.43944,-7.77221 8.07702,-10.56199 l 4.79559,-5.07233 -12.93912,-14.78303 c -33.17322,-37.9006 -37.33633,-43.52631 -54.4186,-73.53722 -6.8247,-11.98993 -11.78734,-18.18363 -30.2294,-37.72824 -12.13535,-12.86085 -24.56009,-26.94608 -27.61053,-31.30052 -8.41576,-12.0133 -15.60708,-28.56066 -19.76953,-45.49006 l -3.75149,-15.2579 -3.96231,7.93652 c -26.02133,52.12074 -40.45827,89.38361 -53.8314,138.94311 -9.48079,35.13488 -11.12403,42.40513 -15.20616,67.27717 -5.38374,32.80272 -6.94913,59.70891 -5.0497,86.79531 0.89213,12.72215 2.26389,33.8358 3.04834,46.91922 0.78446,13.08343 2.0401,31.23474 2.79031,40.33625 1.6305,19.78104 6.94581,53.09214 8.47169,53.09214 0.59685,0 7.98902,-7.1266 16.42704,-15.8369 z M 367.23633,407.84422 c -2.75638,-4.74037 -9.16482,-14.51415 -14.241,-21.71951 -5.07616,-7.20537 -11.87691,-17.6109 -15.11277,-23.12341 -6.23061,-10.61426 -9.28426,-13.99482 -7.60751,-8.42192 2.79282,9.28226 10.92674,25.81666 16.73336,34.01507 5.4738,7.72851 23.41043,27.86863 24.81956,27.86863 0.23099,0 -1.83525,-3.87849 -4.59164,-8.61886 z"
       id="path1742"
       transform="matrix(0.26458333,0,0,0.26458333,1.4594595,5.1081081)" />
    <path
       style="fill:#000080;stroke-width:3.00626;stroke-linecap:round"
       d="m 474.38178,798.9904 c -4.92998,-0.27858 -21.99531,-1.44991 -37.92296,-2.60296 -15.92764,-1.15307 -48.36056,-2.72827 -72.07314,-3.50046 -23.71258,-0.77218 -47.90949,-2.01201 -53.77092,-2.75516 -17.34781,-2.1995 -58.37068,-3.37545 -59.41536,-1.70319 -0.6,0.96043 -2.84371,0.5403 -6.61675,-1.23897 -5.66716,-2.67251 -5.71583,-2.75968 -6.65497,-11.91901 -0.52034,-5.07474 -2.77934,-20.39685 -5.01999,-34.04911 -2.24065,-13.65227 -4.69009,-35.06151 -5.44318,-47.57608 -0.7531,-12.51458 -2.28582,-36.35802 -3.40604,-52.98541 -4.23378,-62.84184 -1.41277,-96.16487 13.25405,-156.56282 11.45556,-47.17401 22.86712,-80.49717 41.57899,-121.41581 22.92111,-50.12331 26.85788,-59.98115 30.00202,-75.12636 0.88948,-4.28463 2.47335,-8.11875 3.51971,-8.52028 1.04636,-0.40152 9.88646,2.41433 19.64466,6.25745 24.32358,9.57947 44.74416,15.23344 84.40518,23.36979 39.98987,8.20381 51.03858,9.52801 93.35891,11.18917 l 31.99265,1.25577 7.99884,4.66616 c 5.39041,3.14453 8.1453,5.67235 8.44802,7.75171 0.24707,1.69706 -1.12517,11.27863 -3.04939,21.29239 -5.47903,28.51311 -7.08255,45.9135 -12.60682,136.80227 -1.1064,18.20303 -2.3444,35.26836 -2.75111,37.92297 -0.40672,2.6546 -1.31179,22.51245 -2.01128,44.12853 -0.85683,26.47761 -2.07497,43.80177 -3.7332,53.09215 -2.10832,11.81223 -2.46384,22.29528 -2.47865,73.08789 l -0.0172,59.29773 3.62652,8.9636 c 7.63545,18.87237 10.24647,24.19639 12.79476,26.08928 2.57347,1.91162 2.56753,1.98103 -0.25889,3.02658 -3.23825,1.19791 -59.48241,2.54831 -73.39436,1.76218 z m -21.05873,-8.26791 c -0.45825,-0.45823 -1.64765,-0.50722 -2.64312,-0.1088 -1.10008,0.4402 -0.77332,0.76698 0.83316,0.83314 1.45371,0.0598 2.2682,-0.26605 1.80996,-0.72429 z m -19.62226,-1.9642 c -3.03384,-0.60565 -12.65248,-1.41261 -21.37476,-1.79326 -8.72228,-0.38065 -13.99702,-0.41422 -11.72165,-0.0746 5.93182,0.88537 29.58742,2.90129 34.47542,2.93798 3.39145,0.0255 3.14292,-0.16739 -1.37901,-1.07011 z m 98.04586,-4.64352 c 0.40624,-1.05866 -1.09484,-5.5577 -3.33576,-9.99788 -8.40079,-16.64541 -8.52155,-17.76546 -8.52155,-79.03564 0,-49.24153 0.34337,-58.38546 2.85168,-75.94039 1.84366,-12.90328 3.27999,-33.11934 4.06341,-57.19151 0.66645,-20.4784 1.85601,-45.92126 2.64344,-56.53969 0.78743,-10.61843 2.6982,-38.54352 4.24613,-62.05575 3.62458,-55.05512 5.02907,-69.16108 9.06208,-91.01511 4.1898,-22.70359 4.2035,-24.13065 0.23179,-24.14047 -12.58426,-0.0311 -64.37812,-3.03822 -72.74314,-4.22339 -12.93235,-1.83229 -75.05456,-14.40065 -85.39873,-17.27759 -14.89895,-4.14373 -25.79514,-7.83117 -43.35241,-14.67114 -14.33695,-5.58539 -17.97179,-6.54782 -18.947,-5.01673 -0.66368,1.042 -0.90594,2.71317 -0.53835,3.71372 0.3676,1.00055 1.95065,8.11151 3.5179,15.80214 6.09875,29.92708 14.63533,48.91026 37.67731,83.78479 8.25095,12.48797 20.6621,31.54368 27.58033,42.34602 32.70572,51.06758 53.47475,80.49255 66.21146,93.80645 17.06536,17.83874 17.23997,18.21452 11.50643,24.76314 -2.50765,2.86415 -6.34571,8.00005 -8.52903,11.41312 -2.18332,3.41307 -10.89093,14.89338 -19.35025,25.51181 -8.45932,10.61843 -19.34115,24.58098 -24.18185,31.02788 -4.84069,6.4469 -12.96099,16.69006 -18.04511,22.76257 -14.02378,16.75012 -66.61007,66.3274 -85.68814,80.78503 -16.05639,12.16775 -50.6941,44.83324 -50.6941,47.80766 0,2.45622 5.68951,3.05551 29.64887,3.12297 12.8938,0.0363 34.61332,0.63566 48.26558,1.3319 53.94386,2.75101 103.43818,5.83531 131.69611,8.20679 38.42084,3.22439 59.11692,3.54083 60.1229,0.9193 z m -232.2681,-66.77062 c 16.17974,-12.15687 24.04603,-19.10211 53.91738,-47.60423 24.48813,-23.36566 36.48076,-36.71206 54.1067,-60.21449 5.97257,-7.96382 16.55895,-21.66573 23.52531,-30.4487 6.96633,-8.78296 14.41355,-18.71188 16.54936,-22.06427 2.1358,-3.35238 6.02022,-8.37779 8.63201,-11.16757 l 4.74874,-5.07233 -12.93912,-14.71711 c -31.78386,-36.15134 -37.29586,-43.59761 -54.37238,-73.4526 -6.69081,-11.69761 -12.00803,-18.33538 -30.2294,-37.73693 -12.16076,-12.94842 -24.60631,-27.1014 -27.65675,-31.45106 -8.42166,-12.00853 -15.60694,-28.55142 -19.78915,-45.56116 l -3.7711,-15.33769 -8.43651,17.66943 c -24.8442,52.03372 -35.22035,78.51351 -46.37082,118.33765 -19.59002,69.96616 -26.36318,118.39634 -23.14335,165.48202 0.88171,12.8938 2.23628,33.68248 3.01016,46.19706 2.48102,40.12134 4.15327,58.04428 6.93895,74.37061 1.49727,8.77524 3.03144,16.82351 3.40925,17.88502 0.45173,1.26919 7.16711,-4.40887 19.61255,-16.58301 10.40908,-10.18217 24.92526,-23.02096 32.25817,-28.53064 z m 67.95527,-308.81042 c -2.08108,-3.60268 -8.85675,-13.99702 -15.05706,-23.09853 -6.20031,-9.10151 -13.6217,-20.46308 -16.49198,-25.24792 -2.87028,-4.78485 -5.5063,-8.41211 -5.85783,-8.06058 -0.99811,0.9981 6.9945,20.06414 11.93981,28.48194 5.98929,10.19484 26.15326,34.47542 28.63033,34.47542 0.34128,0 -1.08219,-2.94765 -3.16327,-6.55033 z"
       id="path1744"
       transform="matrix(0.26458333,0,0,0.26458333,1.4594595,5.1081081)" />
  </g>
  <g
     inkscape:label="Vrstva 1"
     inkscape:groupmode="layer"
     id="layer1"
     transform="translate(-19.479506,-71.15579)">
    <path
       style="fill:#000080;stroke-width:0.576792;stroke-linecap:round"
       id="path235"
       d="m 65.377551,205.91954 c 2.676753,0.38937 5.395741,0.51747 8.096308,0.66699 4.85067,0.21597 9.70711,0.24203 14.561688,0.27403 5.173186,-0.004 10.327642,0.39865 15.480503,0.80278 4.26879,0.42988 8.53708,0.85903 12.8075,1.27384 3.18363,0.28136 6.3459,0.73143 9.53308,0.98044 3.71934,0.20807 7.44628,0.23355 11.17049,0.26089 1.40661,0.0137 2.81328,0.019 4.21992,0.0278 0.91193,0.006 1.51027,0.0531 2.3785,-0.21431 1.02022,-0.7019 0.4604,-1.80207 0.0261,-2.692 -0.58151,-0.97028 -1.07759,-1.98679 -1.55772,-3.00992 -0.47028,-1.11644 -0.76264,-2.30357 -1.04334,-3.4803 -0.23577,-1.00535 -0.26212,-2.03929 -0.28264,-3.06662 -0.0182,-1.18245 -0.0147,-2.3651 -0.01,-3.54764 0.0112,-1.00842 0.007,-2.01686 0.008,-3.02531 0.005,-0.9355 0.002,-1.87101 0.004,-2.80652 -1.9e-4,-1.15286 -0.009,-2.30569 -0.0159,-3.45853 -2e-5,-1.38495 0.004,-2.76988 0.003,-4.15483 7.9e-4,-1.34206 0.003,-2.68415 -0.003,-4.02622 0.003,-1.77081 -0.0526,-3.54316 0.0302,-5.31254 0.11256,-1.8911 0.52819,-3.74304 0.74852,-5.6224 0.30149,-2.1722 0.64217,-4.33572 0.85147,-6.51974 0.18824,-2.11598 0.16431,-4.24281 0.17208,-6.36496 -0.0113,-2.42131 -0.005,-4.83978 0.0905,-7.25933 0.0384,-2.64515 0.36754,-5.26769 0.61068,-7.89781 0.22184,-2.57428 0.29709,-5.15676 0.47326,-7.7339 0.17016,-2.25938 0.21459,-4.52454 0.3599,-6.78535 0.27232,-2.74684 0.44369,-5.50147 0.64333,-8.25413 0.16001,-2.89065 0.38999,-5.77671 0.55939,-8.66684 0.17896,-2.3998 0.47641,-4.79214 0.78112,-7.179266 0.29733,-1.899592 0.69728,-3.7806 1.07279,-5.665811 0.27104,-1.407018 0.58104,-2.805081 0.77955,-4.224923 0.12126,-0.99365 0.19376,-1.567963 -0.61884,-2.248492 -1.28152,-0.703564 -2.53222,-1.466445 -3.84456,-2.110695 -0.12748,-0.06258 -1.37881,-0.164598 -1.44181,-0.169357 -0.99816,-0.07541 -1.99865,-0.07955 -2.99898,-0.09606 -2.33638,-0.0274 -4.66833,-0.196086 -7.00346,-0.279093 -2.39786,-0.04052 -4.79533,-0.150612 -7.18442,-0.36185 -2.4136,-0.102208 -4.78377,-0.495146 -7.15447,-0.92756 -2.84255,-0.589775 -5.6802,-1.212448 -8.5336,-1.749322 -2.44896,-0.539216 -4.91143,-1.00126 -7.3638,-1.520746 -1.7583,-0.457268 -3.509816,-0.942305 -5.260593,-1.427689 C 95.105631,78.013824 93.761584,77.438858 92.368556,77.023531 91.12141,76.641753 89.9295,76.12063 88.703079,75.678394 87.570586,75.204542 86.443598,74.726678 85.322625,74.224411 84.582363,73.9038 83.768322,73.719507 83.062157,73.326603 c -0.728646,-0.256587 -0.980818,0.661919 -1.177025,1.184286 -0.273066,1.206756 -0.486323,2.416939 -0.821852,3.610165 -0.284276,1.322038 -0.687511,2.593851 -1.162753,3.857871 -0.566087,1.571107 -1.287786,3.07956 -1.982007,4.596495 -0.737709,1.634734 -1.523095,3.247276 -2.349775,4.838708 -0.818206,1.851345 -1.587392,3.72378 -2.449688,5.55548 -0.928941,1.778199 -1.725239,3.616312 -2.470597,5.477352 -0.880091,2.04712 -1.586693,4.16293 -2.356905,6.25264 -0.717082,1.98204 -1.338927,3.99675 -2.036189,5.98544 -0.631637,1.98912 -1.182423,3.99976 -1.732925,6.01218 -0.675421,2.13138 -1.110816,4.32644 -1.677464,6.48708 -0.636511,2.32133 -1.198888,4.66552 -1.712907,7.01726 -0.471892,2.28683 -0.861843,4.58792 -1.234599,6.89254 -0.44382,2.77604 -0.765614,5.57023 -1.039312,8.36762 -0.251039,2.66663 -0.323035,5.34519 -0.364138,8.02185 -0.10269,2.26515 0.07021,4.51661 0.302696,6.76684 0.241512,2.33167 0.336101,4.67423 0.384982,7.01671 0.134403,2.3259 0.438489,4.63651 0.596271,6.96163 0.14732,2.16837 0.107553,4.34302 0.202374,6.51299 0.08799,2.19532 0.45955,4.36353 0.710943,6.54271 0.28026,2.53225 0.860523,5.0154 1.277697,7.52591 0.385503,2.04154 0.640342,4.10308 0.789112,6.17447 0.04135,0.85558 0.09404,1.71389 0.05234,2.57053 1.20655,0.58659 2.359316,1.29998 3.619653,1.75977 0.01627,0.006 0.159883,-0.43267 0.342784,-0.83764 0.319135,-0.70661 0.68993,-1.38023 1.076886,-2.05122 0.969724,-1.68214 2.164696,-3.21799 3.452172,-4.66576 1.520669,-1.64818 3.06052,-3.27711 4.663408,-4.84587 1.825546,-1.65612 3.700129,-3.27945 5.723964,-4.68997 1.829006,-1.32467 3.674809,-2.63813 5.383194,-4.11724 1.84073,-1.57211 3.661905,-3.1554 5.376415,-4.86516 1.652321,-1.74226 3.411617,-3.37902 5.124567,-5.06166 1.767522,-1.74533 3.543081,-3.48241 5.323751,-5.21458 1.90401,-1.91748 3.57945,-4.0438 5.28958,-6.13154 1.5033,-1.86609 2.87461,-3.83264 4.32391,-5.7402 1.26056,-1.63048 2.47289,-3.30163 3.76054,-4.90974 1.13322,-1.45395 2.37686,-2.81606 3.52643,-4.25634 0.85627,-0.94309 1.52864,-2.02875 2.20476,-3.10227 0.43419,-0.7442 0.79963,-1.54276 1.3693,-2.19564 0.61235,-0.53617 1.28616,-0.96952 1.68632,-1.69258 0.44908,-1.18517 -0.47446,-2.09877 -1.19245,-2.92688 -1.45856,-1.57992 -3.09785,-2.97545 -4.65945,-4.44928 -1.91285,-1.95645 -3.70658,-4.02454 -5.4138,-6.16174 -1.90883,-2.38132 -3.43779,-5.0053 -4.94429,-7.64731 -1.54535,-2.51782 -2.85769,-5.16667 -4.35453,-7.71179 -1.49014,-2.28981 -2.96276,-4.58927 -4.32088,-6.96028 -1.324508,-2.37126 -2.891082,-4.58324 -4.525432,-6.74706 -1.334662,-1.88428 -2.515309,-3.875469 -3.653528,-5.8833 -0.750186,-1.234606 -1.494518,-2.468213 -2.069867,-3.79522 -0.493787,-1.14009 -0.952606,-2.291006 -1.355813,-3.46614 -0.421221,-1.17775 -0.902805,-2.332336 -1.273865,-3.527337 -0.427456,-1.30192 -0.630621,-2.657803 -0.899279,-3.997079 -0.13113,-0.895019 -0.363948,-1.768848 -0.539943,-2.654829 -0.06015,-0.671436 -0.233331,-1.318988 -0.374708,-1.975305 -0.01423,-0.07679 -0.02846,-0.15358 -0.0427,-0.230373 0,0 -3.573563,-1.729653 -3.573563,-1.729653 v 0 c 0.01773,0.07716 0.03543,0.154316 0.05315,0.231474 0.120515,0.663345 0.350891,1.298482 0.384733,1.976736 0.162926,0.896488 0.431279,1.76843 0.560851,2.671736 0.284911,1.346441 0.485841,2.712093 0.894382,4.029697 0.331414,1.213022 0.828093,2.365391 1.262652,3.54376 0.41284,1.177634 0.825339,2.351082 1.34166,3.488312 0.560829,1.35722 1.294606,2.61607 2.08566,3.852111 1.153366,2.02774 2.37032,4.024122 3.683833,5.95201 1.634072,2.15267 3.220223,4.34097 4.546725,6.70154 1.343874,2.38245 2.808986,4.68991 4.321382,6.96872 1.52287,2.53272 2.82043,5.19166 4.36802,7.7108 0.75411,1.31286 1.45615,2.65857 2.27327,3.9342 0.55326,0.8637 1.12717,1.64668 1.72634,2.47877 0.31053,0.43123 0.62266,0.8613 0.93399,1.29195 1.68589,2.14766 3.46036,4.22092 5.34989,6.19274 1.53105,1.47444 3.15727,2.84842 4.62064,4.39351 0.59457,0.68386 1.60623,1.46051 1.35987,2.47514 -0.38297,0.69187 -1.09754,1.07331 -1.64454,1.62648 -0.56474,0.6832 -0.9569,1.47954 -1.379,2.25508 -0.66609,1.06303 -1.3217,2.14047 -2.16203,3.07887 -1.13115,1.45174 -2.35937,2.82516 -3.49925,4.27022 -1.28221,1.61556 -2.50684,3.28046 -3.74758,4.92847 -1.44154,1.90683 -2.81632,3.86366 -4.29908,5.73913 -1.69216,2.08493 -3.36565,4.19666 -5.279359,6.08627 -1.778246,1.73354 -3.549457,3.47381 -5.315148,5.21973 -1.728909,1.66727 -3.486153,3.30978 -5.127805,5.06375 -1.720125,1.69387 -3.538368,3.27213 -5.382128,4.82985 -1.707351,1.46072 -3.533365,2.77485 -5.35083,4.09416 -2.02103,1.44828 -3.926197,3.06262 -5.758381,4.74178 -1.602216,1.58222 -3.177344,3.19043 -4.691806,4.85736 -1.315103,1.45948 -2.511202,3.02735 -3.512343,4.72091 -0.401209,0.67794 -0.786294,1.36155 -1.13923,2.06621 -0.07538,0.15049 -0.14659,0.3031 -0.214889,0.45694 -0.03207,0.0722 -0.152205,0.17766 -0.08605,0.22087 1.097496,0.71692 2.275744,1.30186 3.413617,1.9528 -0.03203,0.004 -0.08185,0.0423 -0.09608,0.0133 -0.03417,-0.0697 -0.0082,-0.15502 -0.01143,-0.23258 -0.0306,-0.74248 -0.0407,-1.48596 -0.100343,-2.22707 -0.163859,-2.09095 -0.449929,-4.17102 -0.828497,-6.23388 -0.429795,-2.49979 -0.979803,-4.97984 -1.27535,-7.501 -0.238252,-2.1714 -0.606129,-4.33014 -0.710727,-6.51441 -0.108243,-2.17394 -0.0577,-4.3538 -0.21209,-6.52655 -0.152961,-2.31941 -0.440317,-4.62448 -0.596908,-6.94277 -0.05617,-2.35225 -0.143623,-4.70433 -0.379568,-7.04668 -0.209524,-2.23852 -0.42948,-4.47741 -0.324348,-6.73001 0.0263,-2.67291 0.07817,-5.34778 0.313947,-8.01197 0.262551,-2.78647 0.620779,-5.56229 1.063315,-8.32603 0.382469,-2.29592 0.763384,-4.59179 1.226058,-6.8734 0.521814,-2.34551 1.055751,-4.69116 1.703187,-7.00546 0.563806,-2.15787 1.036994,-4.34045 1.694479,-6.47297 0.548314,-2.00303 1.090094,-4.00705 1.724779,-5.98516 0.701685,-1.98596 1.302369,-4.00705 2.016069,-5.98944 0.774957,-2.0835 1.476206,-4.1973 2.364515,-6.23648 0.744961,-1.85311 1.544587,-3.68124 2.46198,-5.456663 0.856647,-1.828115 1.630982,-3.692877 2.451674,-5.537346 0.823423,-1.599771 1.634516,-3.205694 2.366357,-4.850003 0.702627,-1.521769 1.41891,-3.039959 2.008904,-4.610126 0.497636,-1.269288 0.907812,-2.549903 1.180354,-3.888174 0.338471,-1.177573 0.588645,-2.364904 0.839766,-3.562625 0.208447,-0.548883 0.215133,-0.969737 0.825646,-0.634995 0.745649,0.293474 1.497716,0.569841 2.239639,0.871959 1.116151,0.503213 2.249821,0.966589 3.385445,1.423204 1.222589,0.459748 2.429658,0.954185 3.681894,1.331568 1.377997,0.441196 2.732442,0.964827 4.142613,1.298126 1.747912,0.472712 3.488062,0.97763 5.250812,1.392475 2.43529,0.524582 4.89207,0.933654 7.32355,1.478963 2.86631,0.545155 5.71431,1.182931 8.5713,1.774354 2.37546,0.430424 4.7571,0.769014 7.1713,0.894067 2.39566,0.191534 4.79662,0.308861 7.19966,0.350313 2.3383,0.08697 4.67375,0.252945 7.01383,0.27921 1.00328,0.02506 2.01033,0.0394 3.00913,0.148992 1.66314,0.182475 3.73974,1.334267 -1.51883,-1.491152 0.93807,0.504343 0.92323,0.817771 0.81759,1.862513 -0.16841,1.421469 -0.46852,2.817596 -0.7256,4.224539 -0.36767,1.896845 -0.78096,3.785116 -1.07355,5.695738 -0.29643,2.401247 -0.55481,4.810363 -0.75942,7.220803 -0.15018,2.89189 -0.37987,5.77863 -0.53734,8.67009 -0.20922,2.74788 -0.38848,5.49835 -0.68041,8.23915 -0.14618,2.26038 -0.22289,4.52268 -0.36102,6.78356 -0.17073,2.57863 -0.22553,5.16251 -0.44225,7.73824 -0.25536,2.63383 -0.60358,5.25925 -0.62834,7.91023 -0.1195,2.42109 -0.13734,4.841 -0.11294,7.26508 -0.0106,2.10907 -0.0237,4.22036 -0.17752,6.3249 -0.1856,2.18437 -0.51878,4.34541 -0.84186,6.51256 -0.22637,1.88519 -0.65427,3.74019 -0.78021,5.63589 -0.0926,1.77171 -0.0232,3.54697 -0.057,5.32051 -0.006,1.34115 -0.003,2.68233 -0.003,4.02348 -7.9e-4,1.38611 0.003,2.77221 0.003,4.15832 -0.007,1.14746 -0.0157,2.29491 -0.0158,3.44239 0.002,0.93665 -8e-4,1.87329 0.003,2.80994 -5.2e-4,1.00955 -0.006,2.01908 1.7e-4,3.02863 5.3e-4,1.18444 -0.007,2.36892 0.002,3.55333 0.021,1.04911 0.0152,2.10891 0.24261,3.13881 0.27537,1.20172 0.60655,2.39926 1.02282,3.5587 0.46794,1.02997 0.93858,2.06286 1.54031,3.0235 0.38797,0.69014 0.16152,0.24295 0.47207,0.9737 0.18734,0.44084 0.35576,0.83587 -0.15575,1.10911 -0.75229,0.18598 -1.475,0.16966 -2.24994,0.17526 -1.38649,0.01 -2.77302,0.0126 -4.15955,0.0132 -3.72474,-0.0179 -7.45337,-0.0364 -11.17079,-0.29597 -3.18056,-0.26381 -6.33816,-0.71961 -9.51921,-0.97631 -4.23991,-0.38202 -8.47575,-0.79783 -12.71392,-1.19767 -5.165534,-0.40589 -10.332039,-0.80264 -15.518023,-0.79728 -4.866153,-0.0257 -9.734955,-0.0581 -14.595184,-0.32336 -2.756032,-0.17751 -5.529461,-0.33312 -8.251198,-0.8213 0,0 3.171114,2.37342 3.171114,2.37342 z" />
    <path
       style="fill:#000080;stroke-width:0.576792;stroke-linecap:round"
       id="path603"
       d="m 66.496821,208.39285 c 3.197312,-0.037 6.394497,0.14199 9.584893,0.33877 2.954232,0.1148 5.886273,0.49519 8.824929,0.79052 2.253281,0.20818 4.51527,0.27622 6.776717,0.31307 1.854621,0.0194 3.709366,0.0142 5.564058,0.016 1.710026,0.0945 3.416442,0.23992 5.128202,0.30197 2.12559,-5.3e-4 4.24496,0.12318 6.36773,0.2153 3.28681,0.1974 6.56766,0.43418 9.84586,0.74403 3.10898,0.30447 6.22971,0.44555 9.35187,0.50844 2.30707,0.0455 4.61462,0.0472 6.92203,0.0517 1.64857,0.0704 3.28627,-0.12623 4.92855,-0.23117 1.50532,-0.13412 3.02494,-0.0281 4.52736,-0.17806 0.31002,-0.11707 1.3314,0.0313 1.48143,-0.41282 0.0464,-0.13739 0.14089,-0.35611 0.019,-0.43464 -1.22542,-0.7893 -2.5774,-1.36221 -3.8661,-2.04331 -4.358,-0.2784 -8.70635,-0.64866 -13.05548,-1.04264 -5.02817,-0.33091 -10.04734,-0.75918 -15.06881,-1.17634 -2.97302,-0.27011 -5.95519,-0.36175 -8.93868,-0.39318 -2.57304,-0.0249 -5.146176,-0.0164 -7.71928,-0.0188 -2.201209,-0.003 -4.40241,0.006 -6.603609,-0.002 -1.766123,-0.005 -3.532245,-0.005 -5.298376,-0.004 -1.654038,-0.004 -3.308083,-0.003 -4.962123,-0.002 -1.653143,-0.0193 -3.306765,0.0398 -4.95809,-0.0469 -1.675482,-0.0736 -3.329173,-0.35553 -4.996842,-0.51338 -1.182068,-0.18288 -2.359639,-0.38899 -3.551722,-0.49496 -0.525031,-0.0419 -1.05171,-0.0514 -1.578094,-0.0587 0,0 3.193669,2.32947 3.193669,2.32947 v 0 c 0.518012,0.0121 1.036236,0.0279 1.552366,0.0769 1.17687,0.11834 2.341502,0.32244 3.514746,0.46995 1.664097,0.17414 3.320384,0.43001 4.995085,0.48653 1.659009,0.0672 3.319592,0.038 4.979718,0.0404 1.652195,0.001 3.304397,0.002 4.95659,-0.002 1.762345,0.002 3.524681,0.002 5.287015,-0.005 2.194716,-0.009 4.389456,-0.003 6.584177,-0.0124 2.56449,-0.008 5.12911,-0.0122 7.69356,0.007 2.95682,0.0423 5.91316,0.1351 8.86196,0.36854 4.99247,0.38383 9.98488,0.75979 14.97933,1.11521 1.90059,0.1741 3.8001,0.35985 5.70091,0.53147 2.17101,0.19601 4.35821,0.30162 6.52107,0.58103 0.347,0.0448 0.69089,0.11107 1.03634,0.1666 -0.98893,-0.59919 -2.05131,-1.09125 -2.9668,-1.79758 -0.10637,-0.0821 0.21712,-0.15855 0.32099,-0.24376 0.0253,-0.0207 -0.0535,0.0394 -0.0845,0.0497 -0.0971,0.0324 -0.19655,0.0584 -0.29708,0.0776 -0.17883,0.0342 -0.76365,0.10341 -0.92979,0.12401 -1.49372,0.11511 -2.99728,0.0719 -4.49162,0.1916 -1.63334,0.10331 -3.26406,0.27014 -4.90321,0.21938 -2.29009,0.008 -4.58038,0.0111 -6.87027,-0.0246 -3.10418,-0.0713 -6.2077,-0.19875 -9.29908,-0.50343 -3.29817,-0.30563 -6.59889,-0.55759 -9.9047,-0.76615 -2.13903,-0.11398 -4.27685,-0.21994 -6.41907,-0.24952 -1.713174,-0.079 -3.422745,-0.21413 -5.136062,-0.28729 -1.84838,0.006 -3.696843,0.0104 -5.545156,-0.0103 -2.245583,-0.0334 -4.492234,-0.10138 -6.72878,-0.31843 -2.92463,-0.29539 -5.847178,-0.62608 -8.786472,-0.74311 -3.232118,-0.19089 -6.467252,-0.34779 -9.704958,-0.39783 0,0 3.164599,2.29922 3.164599,2.29922 z" />
    <path
       style="fill:#000080;stroke-width:0.576792;stroke-linecap:round"
       id="path613"
       d="m 82.15659,76.437687 c 0.03126,1.379652 0.01953,2.759689 0.02204,4.139547 -7.4e-5,1.713172 0.155993,3.42678 0.411795,5.119751 0.317915,1.898668 0.835382,3.751932 1.28625,5.620549 0.27476,1.305658 0.756973,2.543117 1.233422,3.783782 0.452334,1.228558 1.066088,2.3881 1.675251,3.544062 0.622673,1.192689 1.369899,2.310792 2.176645,3.385052 0.728602,1.05142 1.533732,2.04649 2.406523,2.98113 1.137079,1.15191 2.225887,2.35065 3.351507,3.51451 1.293595,1.29494 2.567387,2.60875 3.847335,3.91697 1.552732,1.58919 2.997132,3.27864 4.345832,5.04295 1.27211,1.6955 2.52733,3.39612 3.68564,5.17154 1.0729,1.75138 2.22636,3.45248 3.30261,5.20114 0.89224,1.4798 1.88432,2.89592 2.85723,4.32322 0.90225,1.35715 1.92916,2.62164 2.94002,3.89748 0.98428,1.20608 1.98156,2.40185 3.00752,3.57283 0.91272,1.13856 1.89336,2.21431 2.8804,3.28767 0.56856,0.57738 0.27301,0.30883 0.88438,0.80818 0,0 3.64933,1.44969 3.64933,1.44969 v 0 c -0.64673,-0.43662 -0.3375,-0.19002 -0.92356,-0.74493 -0.99089,-1.07579 -2.0012,-2.13102 -2.9007,-3.28726 -1.03089,-1.16085 -2.01425,-2.36093 -3.00931,-3.55219 -1.01389,-1.26774 -2.04979,-2.52103 -2.95195,-3.87284 -0.98636,-1.42284 -1.97766,-2.84475 -2.8922,-4.31492 -1.05994,-1.76305 -2.24215,-3.45128 -3.30327,-5.2147 -1.15997,-1.77967 -2.39201,-3.49733 -3.66914,-5.19531 -1.3502,-1.77716 -2.78995,-3.48152 -4.33791,-5.09156 -1.27263,-1.2981 -2.515429,-2.62502 -3.81153,-3.90066 -1.129225,-1.15415 -2.218346,-2.34604 -3.337449,-3.50679 -0.895236,-0.89872 -1.701331,-1.88979 -2.419442,-2.93501 -0.804894,-1.06378 -1.594387,-2.14222 -2.207374,-3.33268 -0.619474,-1.136192 -1.220335,-2.2915 -1.692767,-3.497727 -0.471599,-1.234327 -0.976447,-2.456945 -1.276477,-3.748599 -0.45166,-1.863394 -0.999969,-3.7036 -1.315945,-5.598633 -0.263443,-1.670098 -0.400164,-3.362566 -0.412091,-5.053253 0.0026,-1.37237 -0.0094,-2.744928 0.02204,-4.117089 0,0 -3.524658,-1.795902 -3.524658,-1.795902 z" />
  </g>
</svg>
